<svg width="407" height="50" viewBox="0 0 407 50" fill="none" xmlns="http://www.w3.org/2000/svg">
<path d="M34.032 49H25.2V44.904H25.072C24.688 45.4587 24.176 46.0347 23.536 46.632C22.9387 47.1867 22.2133 47.6987 21.36 48.168C20.5493 48.6373 19.632 49.0213 18.608 49.32C17.6267 49.6187 16.6027 49.768 15.536 49.768C13.232 49.768 11.1413 49.384 9.264 48.616C7.38667 47.8053 5.76533 46.696 4.4 45.288C3.07733 43.8373 2.05333 42.1307 1.328 40.168C0.602667 38.2053 0.24 36.0507 0.24 33.704C0.24 31.528 0.56 29.4587 1.2 27.496C1.88267 25.4907 2.82133 23.72 4.016 22.184C5.25333 20.648 6.74667 19.432 8.496 18.536C10.2453 17.5973 12.2293 17.128 14.448 17.128C16.4533 17.128 18.3093 17.448 20.016 18.088C21.7653 18.6853 23.1947 19.7307 24.304 21.224H24.432V0.615997H34.032V49ZM25.2 33.448C25.2 31.1013 24.5173 29.2027 23.152 27.752C21.8293 26.3013 19.952 25.576 17.52 25.576C15.088 25.576 13.1893 26.3013 11.824 27.752C10.5013 29.2027 9.84 31.1013 9.84 33.448C9.84 35.7947 10.5013 37.6933 11.824 39.144C13.1893 40.5947 15.088 41.32 17.52 41.32C19.952 41.32 21.8293 40.5947 23.152 39.144C24.5173 37.6933 25.2 35.7947 25.2 33.448ZM71.1445 43.624C69.6085 45.5867 67.6672 47.1013 65.3205 48.168C62.9738 49.2347 60.5418 49.768 58.0245 49.768C55.6352 49.768 53.3738 49.384 51.2405 48.616C49.1498 47.848 47.3152 46.76 45.7365 45.352C44.2005 43.9013 42.9845 42.1733 42.0885 40.168C41.1925 38.1627 40.7445 35.9227 40.7445 33.448C40.7445 30.9733 41.1925 28.7333 42.0885 26.728C42.9845 24.7227 44.2005 23.016 45.7365 21.608C47.3152 20.1573 49.1498 19.048 51.2405 18.28C53.3738 17.512 55.6352 17.128 58.0245 17.128C60.2432 17.128 62.2485 17.512 64.0405 18.28C65.8752 19.048 67.4112 20.1573 68.6485 21.608C69.9285 23.016 70.9098 24.7227 71.5925 26.728C72.2752 28.7333 72.6165 30.9733 72.6165 33.448V36.456H50.3445C50.7285 38.2907 51.5605 39.7627 52.8405 40.872C54.1205 41.9387 55.6992 42.472 57.5765 42.472C59.1552 42.472 60.4778 42.1307 61.5445 41.448C62.6538 40.7227 63.6138 39.8053 64.4245 38.696L71.1445 43.624ZM63.0165 29.928C63.0592 28.3067 62.5258 26.92 61.4165 25.768C60.3072 24.616 58.8778 24.04 57.1285 24.04C56.0618 24.04 55.1232 24.2107 54.3125 24.552C53.5018 24.8933 52.7978 25.3413 52.2005 25.896C51.6458 26.408 51.1978 27.0267 50.8565 27.752C50.5578 28.4347 50.3872 29.16 50.3445 29.928H63.0165ZM75.1905 17.896H85.5585L93.4305 39.016H93.5585L100.855 17.896H110.519L98.2305 49H88.0545L75.1905 17.896ZM127.969 36.904H112.225V29.224H127.969V36.904ZM154.011 27.944C153.541 27.2613 152.88 26.7067 152.027 26.28C151.173 25.8107 150.256 25.576 149.275 25.576C146.843 25.576 144.944 26.3013 143.579 27.752C142.256 29.2027 141.595 31.1013 141.595 33.448C141.595 35.7947 142.256 37.6933 143.579 39.144C144.944 40.5947 146.843 41.32 149.275 41.32C150.341 41.32 151.259 41.0853 152.027 40.616C152.795 40.1467 153.456 39.592 154.011 38.952L160.347 45.608C158.853 47.144 157.083 48.232 155.035 48.872C153.029 49.4693 151.109 49.768 149.275 49.768C146.885 49.768 144.624 49.384 142.491 48.616C140.4 47.848 138.565 46.76 136.987 45.352C135.451 43.9013 134.235 42.1733 133.339 40.168C132.443 38.1627 131.995 35.9227 131.995 33.448C131.995 30.9733 132.443 28.7333 133.339 26.728C134.235 24.7227 135.451 23.016 136.987 21.608C138.565 20.1573 140.4 19.048 142.491 18.28C144.624 17.512 146.885 17.128 149.275 17.128C151.109 17.128 153.029 17.448 155.035 18.088C157.083 18.6853 158.853 19.752 160.347 21.288L154.011 27.944ZM183.35 45.096H183.222C182.155 46.76 180.726 47.9547 178.934 48.68C177.184 49.4053 175.328 49.768 173.366 49.768C171.915 49.768 170.507 49.5547 169.142 49.128C167.819 48.744 166.646 48.1467 165.622 47.336C164.598 46.5253 163.787 45.5227 163.19 44.328C162.592 43.1333 162.294 41.7467 162.294 40.168C162.294 38.376 162.614 36.8613 163.254 35.624C163.936 34.3867 164.832 33.3627 165.942 32.552C167.094 31.7413 168.395 31.1227 169.845 30.696C171.296 30.2267 172.79 29.8853 174.326 29.672C175.904 29.4587 177.462 29.3307 178.998 29.288C180.576 29.2453 182.027 29.224 183.35 29.224C183.35 27.5173 182.731 26.1733 181.494 25.192C180.299 24.168 178.87 23.656 177.206 23.656C175.627 23.656 174.176 23.9973 172.854 24.68C171.574 25.32 170.422 26.216 169.398 27.368L164.278 22.12C166.07 20.456 168.16 19.2187 170.55 18.408C172.939 17.5547 175.414 17.128 177.974 17.128C180.79 17.128 183.094 17.4907 184.886 18.216C186.72 18.8987 188.171 19.9227 189.238 21.288C190.347 22.6533 191.115 24.3387 191.542 26.344C191.968 28.3067 192.182 30.5893 192.182 33.192V49H183.35V45.096ZM180.982 35.368C180.256 35.368 179.339 35.4107 178.23 35.496C177.163 35.5387 176.118 35.7093 175.094 36.008C174.112 36.3067 173.259 36.7547 172.534 37.352C171.851 37.9493 171.51 38.7813 171.51 39.848C171.51 41 172 41.8533 172.982 42.408C173.963 42.9627 174.987 43.24 176.054 43.24C176.992 43.24 177.888 43.112 178.742 42.856C179.638 42.6 180.427 42.2373 181.11 41.768C181.792 41.2987 182.326 40.7013 182.71 39.976C183.136 39.2507 183.35 38.3973 183.35 37.416V35.368H180.982ZM198.205 17.896H207.805V22.888H207.933C208.957 20.968 210.173 19.5387 211.581 18.6C212.989 17.6187 214.759 17.128 216.893 17.128C217.447 17.128 218.002 17.1493 218.557 17.192C219.111 17.2347 219.623 17.32 220.093 17.448V26.216C219.41 26.0027 218.727 25.8533 218.045 25.768C217.405 25.64 216.722 25.576 215.997 25.576C214.162 25.576 212.711 25.832 211.645 26.344C210.578 26.856 209.746 27.5813 209.149 28.52C208.594 29.416 208.231 30.504 208.061 31.784C207.89 33.064 207.805 34.472 207.805 36.008V49H198.205V17.896ZM255.782 49H246.95V44.904H246.822C246.438 45.4587 245.926 46.0347 245.286 46.632C244.689 47.1867 243.963 47.6987 243.11 48.168C242.299 48.6373 241.382 49.0213 240.358 49.32C239.377 49.6187 238.353 49.768 237.286 49.768C234.982 49.768 232.891 49.384 231.014 48.616C229.137 47.8053 227.515 46.696 226.15 45.288C224.827 43.8373 223.803 42.1307 223.078 40.168C222.353 38.2053 221.99 36.0507 221.99 33.704C221.99 31.528 222.31 29.4587 222.95 27.496C223.633 25.4907 224.571 23.72 225.766 22.184C227.003 20.648 228.497 19.432 230.246 18.536C231.995 17.5973 233.979 17.128 236.198 17.128C238.203 17.128 240.059 17.448 241.766 18.088C243.515 18.6853 244.945 19.7307 246.054 21.224H246.182V0.615997H255.782V49ZM246.95 33.448C246.95 31.1013 246.267 29.2027 244.902 27.752C243.579 26.3013 241.702 25.576 239.27 25.576C236.838 25.576 234.939 26.3013 233.574 27.752C232.251 29.2027 231.59 31.1013 231.59 33.448C231.59 35.7947 232.251 37.6933 233.574 39.144C234.939 40.5947 236.838 41.32 239.27 41.32C241.702 41.32 243.579 40.5947 244.902 39.144C246.267 37.6933 246.95 35.7947 246.95 33.448ZM281.055 27.048C279.647 25.2987 277.791 24.424 275.487 24.424C274.676 24.424 273.887 24.616 273.119 25C272.351 25.384 271.967 26.0453 271.967 26.984C271.967 27.752 272.351 28.328 273.119 28.712C273.929 29.0533 274.932 29.3733 276.127 29.672C277.364 29.928 278.665 30.2267 280.031 30.568C281.439 30.8667 282.74 31.3573 283.935 32.04C285.172 32.7227 286.175 33.6613 286.943 34.856C287.753 36.008 288.159 37.5653 288.159 39.528C288.159 41.5333 287.711 43.1973 286.815 44.52C285.961 45.8 284.852 46.8453 283.487 47.656C282.121 48.424 280.585 48.9573 278.878 49.256C277.172 49.5973 275.487 49.768 273.823 49.768C271.647 49.768 269.449 49.4693 267.231 48.872C265.012 48.232 263.135 47.1227 261.599 45.544L267.423 39.08C268.319 40.1893 269.3 41.0427 270.367 41.64C271.476 42.1947 272.756 42.472 274.207 42.472C275.316 42.472 276.319 42.3227 277.215 42.024C278.111 41.6827 278.559 41.0853 278.559 40.232C278.559 39.4213 278.153 38.824 277.343 38.44C276.575 38.0133 275.572 37.672 274.335 37.416C273.14 37.1173 271.839 36.8187 270.431 36.52C269.065 36.1787 267.764 35.688 266.527 35.048C265.332 34.408 264.329 33.512 263.519 32.36C262.751 31.1653 262.367 29.5867 262.367 27.624C262.367 25.7893 262.729 24.2107 263.455 22.888C264.223 21.5653 265.204 20.4773 266.399 19.624C267.636 18.7707 269.044 18.152 270.623 17.768C272.201 17.3413 273.801 17.128 275.423 17.128C277.471 17.128 279.54 17.4267 281.631 18.024C283.721 18.6213 285.492 19.688 286.943 21.224L281.055 27.048ZM293.272 43.496C293.272 42.6853 293.421 41.9173 293.72 41.192C294.018 40.4667 294.424 39.848 294.936 39.336C295.49 38.7813 296.13 38.3547 296.856 38.056C297.581 37.7573 298.349 37.608 299.16 37.608C299.97 37.608 300.738 37.7573 301.464 38.056C302.189 38.3547 302.808 38.7813 303.32 39.336C303.874 39.848 304.301 40.4667 304.6 41.192C304.898 41.9173 305.048 42.6853 305.048 43.496C305.048 44.3067 304.898 45.0747 304.6 45.8C304.301 46.5253 303.874 47.1653 303.32 47.72C302.808 48.232 302.189 48.6373 301.464 48.936C300.738 49.2347 299.97 49.384 299.16 49.384C298.349 49.384 297.581 49.2347 296.856 48.936C296.13 48.6373 295.49 48.232 294.936 47.72C294.424 47.1653 294.018 46.5253 293.72 45.8C293.421 45.0747 293.272 44.3067 293.272 43.496ZM312.017 17.896H321.233V22.12H321.361C321.66 21.5227 322.086 20.9253 322.641 20.328C323.196 19.7307 323.857 19.1973 324.625 18.728C325.393 18.2587 326.268 17.8747 327.249 17.576C328.23 17.2773 329.297 17.128 330.449 17.128C332.881 17.128 334.844 17.512 336.337 18.28C337.83 19.0053 338.982 20.0293 339.793 21.352C340.646 22.6747 341.222 24.232 341.521 26.024C341.82 27.816 341.969 29.7573 341.969 31.848V49H332.369V33.768C332.369 32.872 332.326 31.9547 332.241 31.016C332.198 30.0347 332.006 29.1387 331.665 28.328C331.366 27.5173 330.876 26.856 330.193 26.344C329.553 25.832 328.614 25.576 327.377 25.576C326.14 25.576 325.137 25.8107 324.369 26.28C323.601 26.7067 323.004 27.304 322.577 28.072C322.193 28.7973 321.937 29.6293 321.809 30.568C321.681 31.5067 321.617 32.488 321.617 33.512V49H312.017V17.896ZM378.207 43.624C376.671 45.5867 374.73 47.1013 372.383 48.168C370.036 49.2347 367.604 49.768 365.087 49.768C362.698 49.768 360.436 49.384 358.303 48.616C356.212 47.848 354.378 46.76 352.799 45.352C351.263 43.9013 350.047 42.1733 349.151 40.168C348.255 38.1627 347.807 35.9227 347.807 33.448C347.807 30.9733 348.255 28.7333 349.151 26.728C350.047 24.7227 351.263 23.016 352.799 21.608C354.378 20.1573 356.212 19.048 358.303 18.28C360.436 17.512 362.698 17.128 365.087 17.128C367.306 17.128 369.311 17.512 371.103 18.28C372.938 19.048 374.474 20.1573 375.711 21.608C376.991 23.016 377.972 24.7227 378.655 26.728C379.338 28.7333 379.679 30.9733 379.679 33.448V36.456H357.407C357.791 38.2907 358.623 39.7627 359.903 40.872C361.183 41.9387 362.762 42.472 364.639 42.472C366.218 42.472 367.54 42.1307 368.607 41.448C369.716 40.7227 370.676 39.8053 371.487 38.696L378.207 43.624ZM370.079 29.928C370.122 28.3067 369.588 26.92 368.479 25.768C367.37 24.616 365.94 24.04 364.191 24.04C363.124 24.04 362.186 24.2107 361.375 24.552C360.564 24.8933 359.86 25.3413 359.263 25.896C358.708 26.408 358.26 27.0267 357.919 27.752C357.62 28.4347 357.45 29.16 357.407 29.928H370.079ZM406.701 25.576H398.253V35.944C398.253 36.7973 398.296 37.5867 398.381 38.312C398.466 38.9947 398.658 39.592 398.957 40.104C399.256 40.616 399.704 41.0213 400.301 41.32C400.941 41.576 401.773 41.704 402.797 41.704C403.309 41.704 403.97 41.6613 404.781 41.576C405.634 41.448 406.274 41.192 406.701 40.808V48.808C405.634 49.192 404.525 49.448 403.373 49.576C402.221 49.704 401.09 49.768 399.981 49.768C398.36 49.768 396.866 49.5973 395.501 49.256C394.136 48.9147 392.941 48.3813 391.917 47.656C390.893 46.888 390.082 45.9067 389.485 44.712C388.93 43.5173 388.653 42.0667 388.653 40.36V25.576H382.509V17.896H388.653V8.68H398.253V17.896H406.701V25.576Z" fill="#333333"/>
</svg>
